<svg xmlns="http://www.w3.org/2000/svg" version="1.0" width="38.000000pt" height="38.000000pt" viewBox="0 0 172.000000 172.000000" preserveAspectRatio="xMidYMid meet" id="logo" class="svg replaced-svg">
<metadata>
Created by Docfx
</metadata>
<g transform="translate(0.000000,172.000000) scale(0.100000,-0.100000)" fill="#dddddd" stroke="none">
<path d="m551.42856 410.93362a147.14285 147.14285 0 1 1 -294.28571 0 147.14285 147.14285 0 1 1 294.28571 0z" stroke-width="12.015735" transform="matrix(.8322421 0 0 .8322421 -70.749299 182.12953)"/><path d="m551.42856 410.93362a147.14285 147.14285 0 1 1 -294.28571 0 147.14285 147.14285 0 1 1 294.28571 0z" stroke-width="54.057037" transform="matrix(.55496936 0 0 .55496936 57.491003 329.35593)"/><path d="m551.42856 410.93362a147.14285 147.14285 0 1 1 -294.28571 0 147.14285 147.14285 0 1 1 294.28571 0z" stroke-width="78.764503" transform="matrix(.38088224 0 0 .38088224 85.300503 302.32273)"/><path d="m551.42856 410.93362a147.14285 147.14285 0 1 1 -294.28571 0 147.14285 147.14285 0 1 1 294.28571 0z" stroke-width="97.697617" transform="matrix(.30706992 0 0 .30706992 120.9779 443.39003)"/>
</g>
</svg>